<?xml version="1.0" encoding="UTF-8" standalone="no"?><!DOCTYPE svg PUBLIC "-//W3C//DTD SVG 1.1//EN" "http://www.w3.org/Graphics/SVG/1.1/DTD/svg11.dtd"><svg width="100%" height="100%" viewBox="0 0 800 800" version="1.1" xmlns="http://www.w3.org/2000/svg" xmlns:xlink="http://www.w3.org/1999/xlink" xml:space="preserve" xmlns:serif="http://www.serif.com/" style="fill-rule:evenodd;clip-rule:evenodd;stroke-linejoin:round;stroke-miterlimit:2;"><g><path d="M413.858,165.787l-167.811,421.794l-10.205,0l-168.944,-438.802l-0,398.55l54.425,22.677l-0,11.906l-121.323,-0l0,-11.906l53.291,-22.677l0,-398.55l-52.157,-7.937l-0,-12.473l125.291,0l142.299,363.968l145.134,-363.968l114.519,0l0,12.473l-52.157,7.937l-0,57.374l-62.362,-0l-0,-40.366Z" style="fill:#1a5e82;"/><g><path d="M476.22,224.056l15.513,-0l241.131,337.919l-0,-303.792l-52.031,-21.819l0,-12.308l119.167,-0l-0,12.308l-53.15,21.819l0,413.448l-13.986,-0l-256.644,-360.536l-0,-87.039Z" style="fill:#203e4f;"/><path d="M453.689,581.912l-0,55.591l53.709,22.379l-0,11.749l-119.726,-0l-0,-11.749l52.03,-22.379l0,-55.591l13.987,-0Z" style="fill:#203e4f;"/><path d="M387.672,231.605l3.003,-7.549l23.183,-0l-0,23.289l-26.186,-10.981l-0,-4.759Z" style="fill:#203e4f;"/><path d="M413.858,247.345l-0,-23.289l62.362,-0l-0,87.039l-22.531,-31.652l-0,302.469l-13.987,-0l0,-323.729l-25.844,-10.838Z" style="fill:#203e4f;"/><path d="M390.675,224.056l-3.003,7.549l-0,-7.549l3.003,-0Z" style="fill:#203e4f;"/></g></g></svg>