<?xml version="1.0" encoding="UTF-8" standalone="no"?><!DOCTYPE svg PUBLIC "-//W3C//DTD SVG 1.1//EN" "http://www.w3.org/Graphics/SVG/1.1/DTD/svg11.dtd"><svg width="100%" height="100%" viewBox="0 0 800 800" version="1.1" xmlns="http://www.w3.org/2000/svg" xmlns:xlink="http://www.w3.org/1999/xlink" xml:space="preserve" xmlns:serif="http://www.serif.com/" style="fill-rule:evenodd;clip-rule:evenodd;stroke-linejoin:round;stroke-miterlimit:2;"><g><path d="M413.838,166.118l-167.573,421.197l-10.19,0l-168.705,-438.18l-0,397.985l54.348,22.645l-0,11.889l-121.151,-0l-0,-11.889l53.216,-22.645l-0,-397.985l-52.084,-7.926l0,-12.455l125.114,0l142.097,363.452l144.928,-363.452l114.357,0l0,12.455l-52.083,7.926l-0,57.293l-62.274,-0l-0,-40.31Z" style="fill:#0076b5;"/><g><path d="M476.112,224.305l15.491,0l240.789,337.44l-0,-303.361l-51.957,-21.788l0,-12.291l118.998,0l0,12.291l-53.074,21.788l-0,412.862l-13.967,-0l-256.28,-360.025l-0,-86.916Z" style="fill:#fff;"/><path d="M453.613,581.654l-0,55.513l53.633,22.347l-0,11.732l-119.557,-0l0,-11.732l51.957,-22.347l-0,-55.513l13.967,-0Z" style="fill:#fff;"/><path d="M387.689,231.844l2.999,-7.539l23.15,0l-0,23.257l-26.149,-10.966l0,-4.752Z" style="fill:#fff;"/><path d="M413.838,247.562l-0,-23.257l62.274,0l-0,86.916l-22.499,-31.607l-0,302.04l-13.967,-0l-0,-323.27l-25.808,-10.822Z" style="fill:#fff;"/><path d="M390.688,224.305l-2.999,7.539l0,-7.539l2.999,0Z" style="fill:#fff;"/></g></g></svg>